<?xml version="1.0" encoding="UTF-8"?>
<svg xmlns="http://www.w3.org/2000/svg" viewBox="0 0 128 128">
    <path fill="#7952B3"
        d="M27.235 13.885c-7.177 0-12.486 6.284-12.249 13.099.228 6.546-.068 15.026-2.203 21.94-2.14 6.936-5.76 11.319-11.673 11.883v6.387c5.913.563 9.533 4.947 11.673 11.883 2.135 6.914 2.43 15.394 2.203 21.94-.238 6.815 5.072 13.098 12.249 13.098h73.54c7.177 0 12.486-6.284 12.249-13.098-.228-6.546.068-15.026 2.202-21.94 2.14-6.935 5.751-11.319 11.674-11.883v-6.387c-5.923-.563-9.534-4.947-11.674-11.883-2.134-6.914-2.43-15.394-2.202-21.94.237-6.815-5.072-13.099-12.25-13.099zm58.114 61.686c0 9.384-7.002 15.073-18.621 15.073H45.306a.491.491 0 01-.491-.491V37.847a.491.491 0 01.491-.492h21.309c9.689 0 16.047 5.246 16.047 13.3 0 5.653-4.277 10.713-9.727 11.6v.296c7.418.813 12.414 5.948 12.414 13.02zM64.571 44.096H53.293v15.922h10.802c7.49 0 11.686-3.029 11.686-8.174 0-4.815-3.641-7.748-11.21-7.748zm-11.278 22.62v17.788h11.505c7.848 0 12.043-3.172 12.043-9.019 0-5.847-4.466-8.77-13.118-8.77z" />
</svg>