<?xml version="1.0" encoding="UTF-8"?>
<svg xmlns="http://www.w3.org/2000/svg" viewBox="0 0 128 128">
    <path fill="#2496ED"
        d="M124.8 52.1c-4.3-2.5-10-2.8-14.8-1.4-.6-5.2-4-9.7-8-12.9l-1.6-1.3-1.4 1.6c-2.7 3.1-3.5 8.3-3.1 12.3.3 2.9 1.2 5.9 3 8.3-1.4.8-2.9 1.9-4.3 2.4-2.8 1-5.9 2-8.9 2h-6.7v-14.1h-13v-25h-15v12h-25v13h-13v14h-11.2l-.2 1.5c-.5 6.4.3 12.6 3 18.5l1.1 2.2.1.2c7.9 13.4 21.7 19 36.8 19 29.2 0 53.3-13.1 64.3-40.6 7.4.4 15-1.8 18.6-8.9l.9-1.8-1.6-1zM28.9 59.5c-1.7 0-3.1-1.4-3.1-3.1s1.4-3.1 3.1-3.1 3.1 1.4 3.1 3.1-1.4 3.1-3.1 3.1zm5.7-31h23.3v11h-23.3zm-5.7 18h23.3v11h-23.3zm-6.2 13h23.3v11h-23.3zm38.9 0h23.3v11h-23.3zm-6.2-13h23.3v11h-23.3zm-6.2-18h23.3v11h-23.3zm-38.9 18h23.3v11h-23.3zm-6.2 13h23.3v11h-23.3z" />
</svg>