<?xml version="1.0" encoding="UTF-8"?>
<svg xmlns="http://www.w3.org/2000/svg" viewBox="0 0 128 128">
    <path fill="#FF2D20"
        d="M127.4 63.95C127.4 28.63 98.77 0 63.45 0S-.5 28.63-.5 63.95c0 35.32 28.63 63.95 63.95 63.95 35.32 0 63.95-28.63 63.95-63.95zm-87.77 8.79l51.99-30.03v13.56L49.85 81.92l-10.22-9.18zm-1.11 13.81l10.22 9.19-10.22 5.89v-15.08zm53.1 1.32L39.63 118.4V91.83l51.99-30.03v26.07zm0-69.65L39.63 48.75V35.19l51.99-30.03v13.56zm12.44 41.36v-13.56l10.22 5.89-10.22 7.67zm0 28.29v-13.56l10.22 5.89-10.22 7.67z" />
</svg>