<?xml version="1.0" encoding="UTF-8"?>
<svg xmlns="http://www.w3.org/2000/svg" viewBox="0 0 128 128">
    <path fill="#95BF47"
        d="M64.85 3.33c0 2.44-.04 4.84-.08 7.23-.03 2.43-.07 4.83-.07 7.22 0 1.7.02 3.4.04 5.1.03 1.7.04 3.4.04 5.1l-1.53.44c-1 .3-2 .6-3 .94-1 .34-1.98.7-2.94 1.1-.96.4-1.9.82-2.82 1.27l-2.6 1.23-2.48 1.2c-.8.4-1.57.8-2.33 1.22l-2.14 1.18c-.68.38-1.34.77-1.97 1.18l-1.82 1.14-1.65 1.1c-.52.35-1.02.7-1.5 1.08l-1.34 1.03c-.42.32-.82.65-1.2.98l-1.06.93c-.33.3-.64.6-.93.9l-.8.84c-.25.27-.48.54-.7.8l-.57.73c-.18.24-.34.47-.48.7l-.38.6c-.12.2-.22.4-.3.58l-.2.46c-.07.16-.12.3-.15.43l-.08.3c-.02.1-.03.18-.03.25 0 .05 0 .1.02.13.02.04.05.06.1.06.05 0 .1-.02.17-.07.07-.05.15-.12.24-.2.1-.1.2-.2.3-.3.12-.12.24-.24.36-.37l.42-.44.47-.5.52-.54.57-.58.6-.6.65-.63.68-.65.7-.66.74-.67.76-.67.78-.67.8-.66.8-.65.83-.63.83-.62.84-.6.84-.58.84-.56.84-.54.83-.52.82-.5.82-.47.8-.45.8-.42.77-.4.76-.38.74-.35.72-.32.7-.3.67-.28.65-.25.63-.22.6-.2.57-.18.55-.15.52-.13.5-.1.46-.08.44-.07.42-.04.38-.02h.36l.34.02.3.04.28.06.26.08.23.1.2.12.18.14.16.15.14.17.12.18.1.2.08.2.06.22.05.23.03.23.02.24v.24l-.02.24-.03.24-.05.23-.06.22-.08.2-.1.2-.12.18-.14.17-.16.15-.18.14-.2.12-.23.1-.26.08-.28.06-.3.04-.34.02h-.36l-.38-.02-.42-.04-.44-.07-.46-.08-.5-.1-.52-.13-.55-.15-.57-.18-.6-.2-.63-.22-.65-.25-.67-.28-.7-.3-.72-.32-.74-.35-.76-.38-.77-.4-.8-.42-.8-.45-.82-.47-.82-.5-.83-.52-.84-.54-.84-.56-.84-.58-.84-.6-.83-.62-.83-.63-.8-.65-.8-.66-.78-.67-.76-.67-.74-.67-.7-.66-.68-.65-.65-.63-.6-.6-.57-.58-.52-.54-.47-.5-.42-.44c-.12-.13-.24-.25-.36-.37-.1-.1-.2-.2-.3-.3-.1-.08-.17-.15-.24-.2-.07-.05-.12-.07-.17-.07-.05 0-.08.02-.1.06-.02.04-.02.08-.02.13 0 .07 0 .15.03.25l.08.3c.03.12.08.27.15.43l.2.46c.08.18.18.37.3.58l.38.6c.14.23.3.46.48.7l.57.73c.2.26.44.53.7.8l.8.84c.3.3.6.6.93.9l1.06.93c.38.33.78.66 1.2.98l1.34 1.03c.47.37.97.73 1.5 1.08l1.65 1.1 1.82 1.14c.63.4 1.3.8 1.97 1.18l2.14 1.18c.76.42 1.53.82 2.33 1.22l2.48 1.2 2.6 1.23c.92.45 1.86.87 2.82 1.27.96.4 1.94.76 2.94 1.1 1 .34 2 .64 3 .94l1.53.44c0 1.7-.02 3.4-.04 5.1-.02 1.7-.04 3.4-.04 5.1 0 2.4.04 4.8.07 7.22.04 2.4.08 4.8.08 7.23 0 .07.02.13.05.2.03.07.07.13.12.18.05.05.1.1.18.13.07.03.14.05.22.05.07 0 .14-.02.2-.05.08-.03.14-.08.2-.13.05-.05.1-.1.13-.18.03-.07.05-.13.05-.2 0-2.44.04-4.84.08-7.23.03-2.43.07-4.83.07-7.22 0-1.7-.02-3.4-.04-5.1-.03-1.7-.04-3.4-.04-5.1l1.53-.44c1-.3 2-.6 3-.94 1-.34 1.98-.7 2.94-1.1.96-.4 1.9-.82 2.82-1.27l2.6-1.23 2.48-1.2c.8-.4 1.57-.8 2.33-1.22l2.14-1.18c.68-.38 1.34-.77 1.97-1.18l1.82-1.14 1.65-1.1c.52-.35 1.02-.7 1.5-1.08l1.34-1.03c.42-.32.82-.65 1.2-.98l1.06-.93c.33-.3.64-.6.93-.9l.8-.84c.25-.27.48-.54.7-.8l.57-.73c.18-.24.34-.47.48-.7l.38-.6c.12-.2.22-.4.3-.58l.2-.46c.07-.16.12-.3.15-.43l.08-.3c.02-.1.03-.18.03-.25 0-.05 0-.1-.02-.13-.02-.04-.05-.06-.1-.06-.05 0-.1.02-.17.07-.07.05-.15.12-.24.2-.1.1-.2.2-.3.3-.12.12-.24.24-.36.37l-.42.44-.47.5-.52.54-.57.58-.6.6-.65.63-.68.65-.7.66-.74.67-.76.67-.78.67-.8.66-.8.65-.83.63-.83.62-.84.6-.84.58-.84.56-.84.54-.83.52-.82.5-.82.47-.8.45-.8.42-.77.4-.76.38-.74.35-.72.32-.7.3-.67.28-.65.25-.63.22-.6.2-.57.18-.55.15-.52.13-.5.1-.46.08-.44.07-.42.04-.38.02h-.36l-.34-.02-.3-.04-.28-.06-.26-.08-.23-.1-.2-.12-.18-.14-.16-.15-.14-.17-.12-.18-.1-.2-.08-.2-.06-.22-.05-.23-.03-.23-.02-.24v-.24l.02-.24.03-.24.05-.23.06-.22.08-.2.1-.2.12-.18.14-.17.16-.15.18-.14.2-.12.23-.1.26-.08.28-.06.3-.04.34-.02h.36l.38.02.42.04.44.07.46.08.5.1.52.13.55.15.57.18.6.2.63.22.65.25.67.28.7.3.72.32.74.35.76.38.77.4.8.42.8.45.82.47.82.5.83.52.84.54.84.56.84.58.84.6.83.62.83.63.8.65.8.66.78.67.76.67.74.67.7.66.68.65.65.63.6.6.57.58.52.54.47.5.42.44c.12.13.24.25.36.37.1.1.2.2.3.3.1.08.17.15.24.2.07.05.12.07.17.07.05 0 .08-.02.1-.06.02-.04.02-.08.02-.13 0-.07 0-.15-.03-.25l-.08-.3c-.03-.12-.08-.27-.15-.43l-.2-.46c-.08-.18-.18-.37-.3-.58l-.38-.6c-.14-.23-.3-.46-.48-.7l-.57-.73c-.2-.26-.44-.53-.7-.8l-.8-.84c-.3-.3-.6-.6-.93-.9l-1.06-.93c-.38-.33-.78-.66-1.2-.98l-1.34-1.03c-.47-.37-.97-.73-1.5-1.08l-1.65-1.1-1.82-1.14c-.63-.4-1.3-.8-1.97-1.18l-2.14-1.18c-.76-.42-1.53-.82-2.33-1.22l-2.48-1.2-2.6-1.23c-.92-.45-1.86-.87-2.82-1.27-.96-.4-1.94-.76-2.94-1.1-1-.34-2-.64-3-.94l-1.53-.44c0-1.7.02-3.4.04-5.1.02-1.7.04-3.4.04-5.1 0-2.4-.04-4.8-.07-7.22-.04-2.4-.08-4.8-.08-7.23 0-.07-.02-.13-.05-.2-.03-.07-.07-.13-.12-.18-.05-.05-.1-.1-.18-.13-.07-.03-.14-.05-.22-.05-.07 0-.14.02-.2.05-.08.03-.14.08-.2.13-.05.05-.1.1-.13.18-.03.07-.05.13-.05.2z" />
    <path fill="#5E8E3E"
        d="M64.85 3.33c0 2.44-.04 4.84-.08 7.23-.03 2.43-.07 4.83-.07 7.22 0 1.7.02 3.4.04 5.1.03 1.7.04 3.4.04 5.1l-1.53.44c-1 .3-2 .6-3 .94-1 .34-1.98.7-2.94 1.1-.96.4-1.9.82-2.82 1.27l-2.6 1.23-2.48 1.2c-.8.4-1.57.8-2.33 1.22l-2.14 1.18c-.68.38-1.34.77-1.97 1.18l-1.82 1.14-1.65 1.1c-.52.35-1.02.7-1.5 1.08l-1.34 1.03c-.42.32-.82.65-1.2.98l-1.06.93c-.33.3-.64.6-.93.9l-.8.84c-.25.27-.48.54-.7.8l-.57.73c-.18.24-.34.47-.48.7l-.38.6c-.12.2-.22.4-.3.58l-.2.46c-.07.16-.12.3-.15.43l-.08.3c-.02.1-.03.18-.03.25 0 .05 0 .1.02.13.02.04.05.06.1.06.05 0 .1-.02.17-.07.07-.05.15-.12.24-.2.1-.1.2-.2.3-.3.12-.12.24-.24.36-.37l.42-.44.47-.5.52-.54.57-.58.6-.6.65-.63.68-.65.7-.66.74-.67.76-.67.78-.67.8-.66.8-.65.83-.63.83-.62.84-.6.84-.58.84-.56.84-.54.83-.52.82-.5.82-.47.8-.45.8-.42.77-.4.76-.38.74-.35.72-.32.7-.3.67-.28.65-.25.63-.22.6-.2.57-.18.55-.15.52-.13.5-.1.46-.08.44-.07.42-.04.38-.02h.36l.34.02.3.04.28.06.26.08.23.1.2.12.18.14.16.15.14.17.12.18.1.2.08.2.06.22.05.23.03.23.02.24v.24l-.02.24-.03.24-.05.23-.06.22-.08.2-.1.2-.12.18-.14.17-.16.15-.18.14-.2.12-.23.1-.26.08-.28.06-.3.04-.34.02h-.36l-.38-.02-.42-.04-.44-.07-.46-.08-.5-.1-.52-.13-.55-.15-.57-.18-.6-.2-.63-.22-.65-.25-.67-.28-.7-.3-.72-.32-.74-.35-.76-.38-.77-.4-.8-.42-.8-.45-.82-.47-.82-.5-.83-.52-.84-.54-.84-.56-.84-.58-.84-.6-.83-.62-.83-.63-.8-.65-.8-.66-.78-.67-.76-.67-.74-.67-.7-.66-.68-.65-.65-.63-.6-.6-.57-.58-.52-.54-.47-.5-.42-.44c-.12-.13-.24-.25-.36-.37-.1-.1-.2-.2-.3-.3-.1-.08-.17-.15-.24-.2-.07-.05-.12-.07-.17-.07-.05 0-.08.02-.1.06-.02.04-.02.08-.02.13 0 .07 0 .15.03.25l.08.3c.03.12.08.27.15.43l.2.46c.08.18.18.37.3.58l.38.6c.14.23.3.46.48.7l.57.73c.2.26.44.53.7.8l.8.84c.3.3.6.6.93.9l1.06.93c.38.33.78.66 1.2.98l1.34 1.03c.47.37.97.73 1.5 1.08l1.65 1.1 1.82 1.14c.63.4 1.3.8 1.97 1.18l2.14 1.18c.76.42 1.53.82 2.33 1.22l2.48 1.2 2.6 1.23c.92.45 1.86.87 2.82 1.27.96.4 1.94.76 2.94 1.1 1 .34 2 .64 3 .94l1.53.44c0 1.7-.02 3.4-.04 5.1-.02 1.7-.04 3.4-.04 5.1 0 2.4.04 4.8.07 7.22.04 2.4.08 4.8.08 7.23 0 .07.02.13.05.2.03.07.07.13.12.18.05.05.1.1.18.13.07.03.14.05.22.05.07 0 .14-.02.2-.05.08-.03.14-.08.2-.13.05-.05.1-.1.13-.18.03-.07.05-.13.05-.2 0-2.44.04-4.84.08-7.23.03-2.43.07-4.83.07-7.22 0-1.7-.02-3.4-.04-5.1-.03-1.7-.04-3.4-.04-5.1l1.53-.44c1-.3 2-.6 3-.94 1-.34 1.98-.7 2.94-1.1.96-.4 1.9-.82 2.82-1.27l2.6-1.23 2.48-1.2c.8-.4 1.57-.8 2.33-1.22l2.14-1.18c.68-.38 1.34-.77 1.97-1.18l1.82-1.14 1.65-1.1c.52-.35 1.02-.7 1.5-1.08l1.34-1.03c.42-.32.82-.65 1.2-.98l1.06-.93c.33-.3.64-.6.93-.9l.8-.84c.25-.27.48-.54.7-.8l.57-.73c.18-.24.34-.47.48-.7l.38-.6c.12-.2.22-.4.3-.58l.2-.46c.07-.16.12-.3.15-.43l.08-.3c.02-.1.03-.18.03-.25 0-.05 0-.1-.02-.13-.02-.04-.05-.06-.1-.06-.05 0-.1.02-.17.07-.07.05-.15.12-.24.2-.1.1-.2.2-.3.3-.12.12-.24.24-.36.37l-.42.44-.47.5-.52.54-.57.58-.6.6-.65.63-.68.65-.7.66-.74.67-.76.67-.78.67-.8.66-.8.65-.83.63-.83.62-.84.6-.84.58-.84.56-.84.54-.83.52-.82.5-.82.47-.8.45-.8.42-.77.4-.76.38-.74.35-.72.32-.7.3-.67.28-.65.25-.63.22-.6.2-.57.18-.55.15-.52.13-.5.1-.46.08-.44.07-.42.04-.38.02h-.36l-.34-.02-.3-.04-.28-.06-.26-.08-.23-.1-.2-.12-.18-.14-.16-.15-.14-.17-.12-.18-.1-.2-.08-.2-.06-.22-.05-.23-.03-.23-.02-.24v-.24l.02-.24.03-.24.05-.23.06-.22.08-.2.1-.2.12-.18.14-.17.16-.15.18-.14.2-.12.23-.1.26-.08.28-.06.3-.04.34-.02h.36l.38.02.42.04.44.07.46.08.5.1.52.13.55.15.57.18.6.2.63.22.65.25.67.28.7.3.72.32.74.35.76.38.77.4.8.42.8.45.82.47.82.5.83.52.84.54.84.56.84.58.84.6.83.62.83.63.8.65.8.66.78.67.76.67.74.67.7.66.68.65.65.63.6.6.57.58.52.54.47.5.42.44c.12.13.24.25.36.37.1.1.2.2.3.3.1.08.17.15.24.2.07.05.12.07.17.07.05 0 .08-.02.1-.06.02-.04.02-.08.02-.13 0-.07 0-.15-.03-.25l-.08-.3c-.03-.12-.08-.27-.15-.43l-.2-.46c-.08-.18-.18-.37-.3-.58l-.38-.6c-.14-.23-.3-.46-.48-.7l-.57-.73c-.2-.26-.44-.53-.7-.8l-.8-.84c-.3-.3-.6-.6-.93-.9l-1.06-.93c-.38-.33-.78-.66-1.2-.98l-1.34-1.03c-.47-.37-.97-.73-1.5-1.08l-1.65-1.1-1.82-1.14c-.63-.4-1.3-.8-1.97-1.18l-2.14-1.18c-.76-.42-1.53-.82-2.33-1.22l-2.48-1.2-2.6-1.23c-.92-.45-1.86-.87-2.82-1.27-.96-.4-1.94-.76-2.94-1.1-1-.34-2-.64-3-.94l-1.53-.44c0-1.7.02-3.4.04-5.1.02-1.7.04-3.4.04-5.1 0-2.4-.04-4.8-.07-7.22-.04-2.4-.08-4.8-.08-7.23 0-.07-.02-.13-.05-.2-.03-.07-.07-.13-.12-.18-.05-.05-.1-.1-.18-.13-.07-.03-.14-.05-.22-.05-.07 0-.14.02-.2.05-.08.03-.14.08-.2.13-.05.05-.1.1-.13.18-.03.07-.05.13-.05.2z" />
</svg>