<?xml version="1.0" encoding="UTF-8"?>
<svg xmlns="http://www.w3.org/2000/svg" viewBox="0 0 128 128">
    <path fill="#21759B"
        d="M64 3.2C30.2 3.2 3.2 30.2 3.2 64S30.2 124.8 64 124.8 124.8 97.8 124.8 64 97.8 3.2 64 3.2zM14.4 64c0-8.9 2.2-17.3 6-24.7l33.1 90.8C30.7 120.9 14.4 94.7 14.4 64zM64 113.6c-6 0-11.8-0.9-17.3-2.5l18.4-53.4 18.8 51.6c0.1 0.3 0.3 0.6 0.4 0.8-6.3 2.3-13.1 3.5-20.3 3.5zm8.3-78.9c3.7-0.2 7-0.6 7-0.6 3.3-0.4 2.9-5.2-0.4-5 0 0-9.9 0.8-16.3 0.8-6 0-16.1-0.8-16.1-0.8-3.3-0.2-3.7 4.8-0.4 5 0 0 3.1 0.4 6.4 0.6l9.5 26.1L48.9 92.7 28.5 34.7c3.7-0.2 7-0.6 7-0.6 3.3-0.4 2.9-5.2-0.4-5 0 0-9.9 0.8-16.3 0.8-1.1 0-2.5 0-3.9-0.1C26.5 15.8 44.2 6.4 64 6.4c14.8 0 28.2 5.6 38.3 14.9-0.2 0-0.5-0.1-0.7-0.1-6 0-10.3 5.2-10.3 10.9 0 5 2.9 9.3 6 14.3 2.3 4.1 5 9.3 5 16.9 0 5.2-2 11.3-4.7 19.7l-6.1 20.4-22.2-65.7zm29.2 81.5L81.9 60.7c4.1-10.3 5.5-18.5 5.5-25.8 0-2.7-0.2-5.1-0.6-7.4 5.6 10.2 8.8 21.9 8.8 34.5 0 26.7-14.5 50-35.9 64.2z" />
</svg>